P2
7 7
255
2 200 200 200 200 200 2 
150 0 103 123 101 0 100 
150 83 89 91 80 62 100 
150 96 78 71 67 71 100 
150 75 55 48 46 54 100 
150 0 19 21 16 0 100 
0 0 0 0 0 0 0 