P2
7 7
255
2 200 200 200 200 200 2 
150 0 100 119 98 0 100 
150 81 83 83 74 60 100 
150 93 70 62 60 67 100 
150 72 49 41 41 51 100 
150 0 16 17 14 0 100 
0 0 0 0 0 0 0 