P2
7 7
255
2 200 200 200 200 200 2 
150 0 98 117 96 0 100 
150 79 79 79 70 58 100 
150 90 66 57 56 65 100 
150 70 45 37 37 49 100 
150 0 14 15 12 0 100 
0 0 0 0 0 0 0 