P2
7 7
255
2 200 200 200 200 200 2 
150 0 102 122 100 0 100 
150 82 86 88 78 61 100 
150 95 75 68 64 69 100 
150 74 53 45 44 53 100 
150 0 18 19 15 0 100 
0 0 0 0 0 0 0 