P2
7 7
255
2 200 200 200 200 200 2 
150 0 101 121 99 0 100 
150 82 85 86 76 61 100 
150 94 73 66 63 68 100 
150 73 51 44 43 52 100 
150 0 17 18 15 0 100 
0 0 0 0 0 0 0 