P2
7 7
255
2 200 200 200 200 200 2 
150 0 95 113 93 0 100 
150 76 73 72 64 55 100 
150 86 59 49 49 61 100 
150 68 40 31 32 47 100 
150 0 12 12 10 0 100 
0 0 0 0 0 0 0 