P2
7 7
255
2 200 200 200 200 200 2 
150 0 97 115 94 0 100 
150 77 76 76 68 57 100 
150 89 63 54 53 63 100 
150 69 43 34 35 48 100 
150 0 13 13 11 0 100 
0 0 0 0 0 0 0 