P2
7 7
255
2 200 200 200 200 200 2 
150 0 84 100 83 0 100 
150 66 54 51 47 47 100 
150 75 40 29 32 52 100 
150 60 27 16 20 41 100 
150 0 6 5 5 0 100 
0 0 0 0 0 0 0 