P2
7 7
255
2 200 200 200 200 200 2 
150 0 89 105 87 0 100 
150 70 62 59 55 50 100 
150 80 48 37 39 56 100 
150 63 32 22 25 43 100 
150 0 8 7 7 0 100 
0 0 0 0 0 0 0 