P2
7 7
255
2 200 200 200 200 200 2 
150 0 102 122 100 0 100 
150 83 87 89 78 62 100 
150 95 75 68 65 70 100 
150 74 53 46 45 53 100 
150 0 18 20 16 0 100 
0 0 0 0 0 0 0 