P2
7 7
255
2 200 200 200 200 200 2 
150 0 46 51 46 0 100 
150 35 12 9 10 23 100 
150 38 7 2 4 26 100 
150 34 5 1 3 23 100 
150 0 0 0 0 0 100 
0 0 0 0 0 0 0 