P2
7 7
255
2 200 200 200 200 200 2 
150 0 78 91 76 0 100 
150 60 44 39 38 42 100 
150 68 31 19 23 46 100 
150 56 20 10 15 37 100 
150 0 4 3 3 0 100 
0 0 0 0 0 0 0 