P2
7 7
255
2 200 200 200 200 200 2 
150 0 103 123 100 0 100 
150 83 88 90 80 62 100 
150 96 77 70 66 70 100 
150 75 54 48 46 54 100 
150 0 18 20 16 0 100 
0 0 0 0 0 0 0 