P2
7 7
255
2 200 200 200 200 200 2 
150 0 67 77 66 0 100 
150 51 29 25 25 35 100 
150 58 19 9 14 39 100 
150 48 13 5 9 32 100 
150 0 2 1 1 0 100 
0 0 0 0 0 0 0 