P2
7 7
255
2 200 200 200 200 200 2 
150 0 101 121 99 0 100 
150 82 86 87 77 61 100 
150 95 74 67 63 69 100 
150 74 52 45 43 53 100 
150 0 17 19 15 0 100 
0 0 0 0 0 0 0 