P2
7 7
255
2 200 200 200 200 200 2 
150 0 92 110 90 0 100 
150 73 68 66 60 53 100 
150 84 54 44 44 59 100 
150 66 36 27 29 45 100 
150 0 10 10 8 0 100 
0 0 0 0 0 0 0 