P2
7 7
255
2 200 200 200 200 200 2 
150 0 99 118 97 0 100 
150 80 81 81 73 59 100 
150 91 68 60 58 66 100 
150 71 47 39 39 50 100 
150 0 15 16 13 0 100 
0 0 0 0 0 0 0 