P2
7 7
255
2 200 200 200 200 200 2 
150 0 102 123 100 0 100 
150 83 88 89 79 62 100 
150 96 76 69 66 70 100 
150 75 54 47 45 53 100 
150 0 18 20 16 0 100 
0 0 0 0 0 0 0 