P2
7 7
255
2 200 200 200 200 200 2 
150 0 100 120 98 0 100 
150 81 84 85 75 60 100 
150 93 72 64 61 68 100 
150 73 50 43 42 52 100 
150 0 16 18 14 0 100 
0 0 0 0 0 0 0 